<svg xmlns="http://www.w3.org/2000/svg" width="142.213" height="121" viewBox="0 0 142.213 121">
  <g id="logo" transform="translate(0.5)">
    <g id="Ellipse_31" data-name="Ellipse 31" transform="translate(19.713)" fill="#ceb86f" stroke="#fbffda" stroke-width="4">
      <ellipse cx="61" cy="60.5" rx="61" ry="60.5" stroke="none"/>
      <ellipse cx="61" cy="60.5" rx="59" ry="58.5" fill="none"/>
    </g>
    <g id="Path_1030" data-name="Path 1030" transform="translate(55.713 46)" fill="#a44939">
      <path d="M 25.5 16.5 C 18.74102973937988 16.5 12.39356994628906 15.62495994567871 7.626890182495117 14.03606986999512 C 3.097650051116943 12.5263204574585 0.5 10.50850009918213 0.5 8.5 C 0.5 6.491499900817871 3.097650051116943 4.473680019378662 7.626890182495117 2.963929891586304 C 12.39356994628906 1.375040054321289 18.74102973937988 0.5 25.5 0.5 C 32.25896835327148 0.5 38.60643005371094 1.375040054321289 43.37311172485352 2.963929891586304 C 47.90235137939453 4.473680019378662 50.5 6.491499900817871 50.5 8.5 C 50.5 10.50850009918213 47.90235137939453 12.5263204574585 43.37311172485352 14.03606986999512 C 38.60643005371094 15.62495994567871 32.25896835327148 16.5 25.5 16.5 Z" stroke="none"/>
      <path d="M 25.5 1 C 18.79335021972656 1 12.50204086303711 1.86592960357666 7.785011291503906 3.43828010559082 C 3.536449432373047 4.854459762573242 1 6.746689796447754 1 8.5 C 1 10.25331020355225 3.536449432373047 12.14554023742676 7.785011291503906 13.56171989440918 C 12.50204086303711 15.13407039642334 18.79335021972656 16 25.5 16 C 32.20664978027344 16 38.49795913696289 15.13407039642334 43.21498870849609 13.56171989440918 C 47.46355056762695 12.14554023742676 50 10.25331020355225 50 8.5 C 50 6.746689796447754 47.46355056762695 4.854459762573242 43.21498870849609 3.43828010559082 C 38.49795913696289 1.86592960357666 32.20664978027344 1 25.5 1 M 25.5 0 C 39.58325958251953 0 51 3.805580139160156 51 8.5 C 51 13.19441986083984 39.58325958251953 17 25.5 17 C 11.41674041748047 17 0 13.19441986083984 0 8.5 C 0 3.805580139160156 11.41674041748047 0 25.5 0 Z" stroke="none" fill="#a44939"/>
    </g>
    <g id="Ellipse_24" data-name="Ellipse 24" transform="translate(57.713 46)" fill="#efebde" stroke="#d8b184" stroke-width="1">
      <ellipse cx="23.5" cy="7" rx="23.5" ry="7" stroke="none"/>
      <ellipse cx="23.5" cy="7" rx="23" ry="6.5" fill="none"/>
    </g>
    <g id="Ellipse_23" data-name="Ellipse 23" transform="translate(58.713 47)" fill="#a90e0e" stroke="#c69c6c" stroke-width="0.8" opacity="0.47">
      <ellipse cx="21" cy="5" rx="21" ry="5" stroke="none"/>
      <ellipse cx="21" cy="5" rx="20.6" ry="4.6" fill="none"/>
    </g>
    <g id="Ellipse_25" data-name="Ellipse 25" transform="translate(64.713 51)" fill="#f2e3ca" stroke="#efebde" stroke-width="1">
      <ellipse cx="3.5" cy="1.5" rx="3.5" ry="1.5" stroke="none"/>
      <ellipse cx="3.5" cy="1.5" rx="3" ry="1" fill="none"/>
    </g>
    <g id="Ellipse_26" data-name="Ellipse 26" transform="translate(87.713 49)" fill="#f2e3ca" stroke="#f2e3ca" stroke-width="1">
      <ellipse cx="3.5" cy="1.5" rx="3.5" ry="1.5" stroke="none"/>
      <ellipse cx="3.5" cy="1.5" rx="3" ry="1" fill="none"/>
    </g>
    <g id="Ellipse_27" data-name="Ellipse 27" transform="translate(77.713 53)" fill="#efebde" stroke="#efebde" stroke-width="1">
      <ellipse cx="3" cy="1" rx="3" ry="1" stroke="none"/>
      <ellipse cx="3" cy="1" rx="2.5" ry="0.5" fill="none"/>
    </g>
    <path id="Path_1007" data-name="Path 1007" d="M-5965.65,6836l9.687,1.565v3.569h-9.687Z" transform="translate(6005.597 -6785)" fill="#806b53" stroke="#806b53" stroke-width="1"/>
    <path id="Path_1008" data-name="Path 1008" d="M-5965.039,6834l8.77,1.322,1.835-5.3-8.667-3.059Z" transform="translate(6005.641 -6785)" fill="#806b53" stroke="#806b53" stroke-width="1"/>
    <path id="Path_1009" data-name="Path 1009" d="M-5962.9,6824.208l8.667,3.263,3.263-5.4-6.424-4.486Z" transform="translate(6005.771 -6785)" fill="#806b53" stroke="#806b53" stroke-width="1"/>
    <path id="Path_1010" data-name="Path 1010" d="M-5955.963,6814.725l6.424,5.71,6.118-5.71-5.2-5.709C-5948.622,6809.219-5955.963,6814.725-5955.963,6814.725Z" transform="translate(6006.133 -6785)" fill="#806b53" stroke="#806b53" stroke-width="1"/>
    <path id="Path_1011" data-name="Path 1011" d="M-5946.889,6808.6l5.013,5.616,5.755-2.785-.882-8.4-5.523,2.181Z" transform="translate(6006.55 -6785)" fill="#806b53" stroke="#806b53" stroke-width="1"/>
    <path id="Path_1012" data-name="Path 1012" d="M-5935.2,6800.608h17.154l-1.253,16.894h-13.924Z" transform="translate(6007.326 -6785)" fill="#806b53" stroke="#806b53" stroke-width="1"/>
    <path id="Path_1013" data-name="Path 1013" d="M-5916.768,6803.346l11.371,4.641-5.941,7.1-6.358-2.785Z" transform="translate(6008.063 -6785)" fill="#806b53" stroke="#806b53" stroke-width="1"/>
    <path id="Path_1014" data-name="Path 1014" d="M-5909.075,6815.437l5.708,5.569,7.426-5.987-7.983-5.755C-5903.923,6809.4-5909.075,6815.437-5909.075,6815.437Z" transform="translate(6008.533 -6785)" fill="#806b53" stroke="#806b53" stroke-width="1"/>
    <path id="Path_1015" data-name="Path 1015" d="M-5902.508,6822.479l3.493,5.43,9.468-3.2-6.126-7.89Z" transform="translate(6009.713 -6785)" fill="#806b53" stroke="#806b53" stroke-width="1"/>
    <path id="Path_1016" data-name="Path 1016" d="M-5898.864,6829.789l2.088,5.384,10.211-.557-2.739-8.261Z" transform="translate(6009.713 -6785)" fill="#806b53" stroke="#806b53" stroke-width="1"/>
    <path id="Path_1017" data-name="Path 1017" d="M-5896.451,6837.679v4.038h9.7v-5.987l-9.189,1.624Z" transform="translate(6009.713 -6785)" fill="#806b53" stroke="#806b53" stroke-width="1"/>
    <path id="Path_1018" data-name="Path 1018" d="M-5954.883,6841.134h1.253v-3.269h-1.253Z" transform="translate(6005.972 -6785)" fill="#f6bd06" stroke="#f6bd06" stroke-width="1"/>
    <path id="Path_1019" data-name="Path 1019" d="M-5954.883,6835.322h1.764l1.393-4.28-1.717-.325Z" transform="translate(6006.006 -6785)" fill="#f6bd06" stroke="#f6bd06" stroke-width="1"/>
    <path id="Path_1020" data-name="Path 1020" d="M-5952.888,6828.211l2.692.789,2.924-4.966-2-.928Z" transform="translate(6006.146 -6785)" fill="#f6bd06" stroke="#f6bd06" stroke-width="1"/>
    <path id="Path_1021" data-name="Path 1021" d="M-5948.3,6821.006l2.274,1.915,4.919-4.641-1.625-1.625Z" transform="translate(6006.4 -6785)" fill="#f6bd06" stroke="#f6bd06" stroke-width="1"/>
    <path id="Path_1022" data-name="Path 1022" d="M-5941.11,6815.587l1.856,1.81,3.806-1.81v-2.321Z" transform="translate(6006.711 -6785)" fill="#f6bd06" stroke="#f6bd06" stroke-width="1"/>
    <path id="Path_1023" data-name="Path 1023" d="M-5917.7,6816l4.119,1.532,2-1.16-6.59-2.553Z" transform="translate(6007.84 -6785)" fill="#f6bd06" stroke="#f6bd06" stroke-width="1"/>
    <path id="Path_1024" data-name="Path 1024" d="M-5911.441,6818.511l4.873,4.363,2.367-.65-6.358-5.291Z" transform="translate(6008.188 -6785)" fill="#f6bd06" stroke="#f6bd06" stroke-width="1"/>
    <path id="Path_1025" data-name="Path 1025" d="M-5905.4,6824.081l2.448-.789,2.32,4.641-2.32.418Z" transform="translate(6008.388 -6785)" fill="#f6bd06" stroke="#f6bd06" stroke-width="1"/>
    <path id="Path_1026" data-name="Path 1026" d="M-5901.881,6830.033h2.228l1.949,5.569h-2.367Z" transform="translate(6008.533 -6785)" fill="#f6bd06" stroke="#f6bd06" stroke-width="1"/>
    <path id="Path_1027" data-name="Path 1027" d="M-5899.143,6841.717h1.949l-.278-4.119h-2.182Z" transform="translate(6008.572 -6785)" fill="#f6bd06" stroke="#f6bd06" stroke-width="1"/>
    <path id="Path_1028" data-name="Path 1028" d="M-5979,6847.446h106.245L-5877.6,6857l4.845,10.685H-5979l5.717-10.685Z" transform="translate(6006.713 -6785)" fill="#eb6d76" stroke="#eb6d76" stroke-width="1"/>
    <g id="Ellipse_28" data-name="Ellipse 28" transform="translate(32.713 70)" fill="#efebde" stroke="#efebde" stroke-width="1">
      <circle cx="3" cy="3" r="3" stroke="none"/>
      <circle cx="3" cy="3" r="2.5" fill="none"/>
    </g>
    <g id="Ellipse_29" data-name="Ellipse 29" transform="translate(121.713 70)" fill="#efebde" stroke="#efebde" stroke-width="1">
      <circle cx="3" cy="3" r="3" stroke="none"/>
      <circle cx="3" cy="3" r="2.5" fill="none"/>
    </g>
    <text id="Pizza_Shop" data-name="Pizza Shop" transform="translate(44.713 75)" fill="#efebde" font-size="12" font-family="PerpetuaTitlingMT-Bold, Perpetua Titling MT" font-weight="700" ><tspan x="0" y="0" text-anchor='right'>Pizza Shop</tspan></text>
    <path id="Path_1006" data-name="Path 1006" d="M-5922.63,6836l-4.74-2.148-1.878-1.494-1-1.35v-1.986l1.668-.977,2.359-.5,3.592-.248,2.9-.519,1.05-1.274v-1.891l-2.134-1.569-2.687-1.4-3.41-1.074-1.678-.384-1.047-.25-.614-.425.423-.39,1.238-.086,7.126.086h2.892l.89-.434.293-1.13-.293-.661-1.148-1.208-1.616-.856-5.466-2.064-4.949-.945,5.95,3.406-1.612.82-4.338.848-3.226.375-.824.313-.288.91.588,1.327,1.248.786,3.728,1.4,3.113,1.285,1.612,1.321v.826l-1,.564-2.488,1.007-3.035,1.287-2.232.979-1.532,1.621.1,1.242.452.649,4.672,2.169Z" transform="translate(6007.347 -6785)" fill="#efebde" stroke="#d3c598" stroke-width="0.8"/>
    <path id="Path_1029" data-name="Path 1029" d="M-5949.468,6842.766l-53.185,6.094-1.061.8v1.452l1.061,1.723,1.326.8h1.858l54.64-9.01Z" transform="translate(6003.713 -6785)" fill="#a44939" stroke="#efebde" stroke-width="1"/>
  </g>
</svg>
